# xmcd CD database file
#
# Track frame offsets:
#	150
#	20753
#	44464
#	63414
#	84604
#	104042
#	124509
#	145207
#	164384
#	177413
#	193071
#	211986
#
# Disc length: 2998 seconds
#
# Revision: 3
# Processed by: cddbd v1.5.1PL0 Copyright (c) Steve Scherf et al.
# Submitted via: CDex 1.51
#
DISCID=b20bb40c
DTITLE=JJ Baron - Brand New Stranger
DYEAR=1900
DGENRE=Country
TTITLE0=Brand New Stranger
TTITLE1=Dead Man's Shoes
TTITLE2=Set Em Up Boys
TTITLE3=Stranger Here Myself
TTITLE4=Open Door
TTITLE5=Still You Look For It
TTITLE6=I Chose to Lose You
TTITLE7=Now I Know
TTITLE8=Just Like You
TTITLE9=Stereo Confessions
TTITLE10=Baby Let's Go
TTITLE11=Wildflower (A Song for June Carter)
EXTD=
EXTT0=
EXTT1=
EXTT2=
EXTT3=
EXTT4=
EXTT5=
EXTT6=
EXTT7=
EXTT8=
EXTT9=
EXTT10=
EXTT11=
PLAYORDER=
